<svg width="40" height="40" viewBox="0 0 40 40" fill="none" xmlns="http://www.w3.org/2000/svg">
<path d="M17 28V29H18V28H17ZM12 28H11V29H12V28ZM12 18.5747H13H12ZM12.238 18.0193L11.5537 17.2901H11.5537L12.238 18.0193ZM19.5102 11.1952L20.1945 11.9245V11.9245L19.5102 11.1952ZM20.4887 11.1952L19.8045 11.9245L20.4887 11.1952ZM27.762 18.0193L28.4462 17.2901V17.2901L27.762 18.0193ZM28 18.5747L27 18.5747V18.5747H28ZM28 28L27.9999 29L29 29.0001V28H28ZM23 27.9994H22V28.9993L22.9999 28.9994L23 27.9994ZM17.7453 21.9972L17.7417 20.9972L17.7453 21.9972ZM24 27.2488V22.7453H22V27.2488H24ZM22.2583 20.9972C21.9107 20.996 21.5488 20.9947 21.454 20.9947V22.9947C21.5442 22.9947 21.9009 22.9959 22.2511 22.9972L22.2583 20.9972ZM21.454 20.9947H18.5449V22.9947H21.454V20.9947ZM18.5449 20.9947C18.4501 20.9947 18.0888 20.996 17.7417 20.9972L17.7489 22.9972C18.0987 22.9959 18.4548 22.9947 18.5449 22.9947V20.9947ZM16 22.7453V27.2488H18V22.7453H16ZM16 27.2488V28H18V27.2488H16ZM17 27H12V29H17V27ZM13 28V18.5747H11V28H13ZM13 18.5747C13 18.6048 12.9939 18.6355 12.9813 18.665L11.143 17.8771C11.0484 18.0979 11 18.3354 11 18.5747H13ZM12.9813 18.665C12.9686 18.6945 12.9491 18.7234 12.9223 18.7485L11.5537 17.2901C11.377 17.456 11.2377 17.6563 11.143 17.8771L12.9813 18.665ZM12.9223 18.7485L20.1945 11.9245L18.826 10.466L11.5537 17.2901L12.9223 18.7485ZM20.1945 11.9245C20.146 11.97 20.0769 12 19.9995 12L19.9994 10C19.5602 10 19.1422 10.1693 18.826 10.466L20.1945 11.9245ZM19.9995 12C19.9221 12 19.853 11.97 19.8045 11.9245L21.173 10.4659C20.8567 10.1692 20.4387 9.99998 19.9994 10L19.9995 12ZM19.8045 11.9245L27.0777 18.7486L28.4462 17.2901L21.173 10.4659L19.8045 11.9245ZM27.0777 18.7486C27.0509 18.7234 27.0314 18.6946 27.0187 18.665L28.857 17.8771C28.7623 17.6563 28.623 17.4559 28.4462 17.2901L27.0777 18.7486ZM27.0187 18.665C27.0061 18.6355 27 18.6048 27 18.5747L29 18.5747C29 18.3354 28.9516 18.0979 28.857 17.8771L27.0187 18.665ZM27 18.5747V28H29V18.5747H27ZM28.0001 27L23.0001 26.9994L22.9999 28.9994L27.9999 29L28.0001 27ZM24 27.9994V27.9925H22V27.9994H24ZM24 27.9925V27.2488H22V27.9925H24ZM17.7417 20.9972C16.7785 21.0007 16 21.7826 16 22.7453H18C18 22.8839 17.8879 22.9967 17.7489 22.9972L17.7417 20.9972ZM24 22.7453C24 21.7826 23.2215 21.0007 22.2583 20.9972L22.2511 22.9972C22.1121 22.9967 22 22.8839 22 22.7453H24Z" fill="#C3C8CF"/>
</svg>
