<svg width="182" height="64" viewBox="0 0 182 64" fill="none" xmlns="http://www.w3.org/2000/svg">
<path d="M68.617 26.7152C67.1307 26.4655 65.8096 26.1326 64.8187 25.7997C63.7453 25.3836 62.9196 24.9675 62.3416 24.4681C61.681 23.9688 61.2681 23.3862 60.9378 22.8869C60.6076 22.3043 60.3598 21.8049 60.2773 21.2224C60.1947 20.723 60.1121 20.2237 60.1121 19.7243V19.4746H70.8464C70.8464 19.7243 70.8464 19.974 70.929 20.2237C71.0116 20.4733 71.1767 20.8062 71.507 21.0559C71.8373 21.3056 72.2502 21.5553 72.8282 21.8049C73.4062 21.9714 74.1493 22.1378 75.1402 22.1378H75.2227C76.131 22.1378 76.8742 22.0546 77.4522 21.9714C78.0302 21.8882 78.443 21.7217 78.7733 21.5553C79.1036 21.3888 79.2687 21.2224 79.3513 20.9727C79.4339 20.723 79.5165 20.5566 79.5165 20.3069V20.2237C79.5165 19.974 79.4339 19.7243 79.3513 19.5579C79.2687 19.3914 79.1036 19.225 78.7733 19.0585C78.5256 18.8921 78.1127 18.8088 77.5347 18.7256C77.0393 18.6424 76.2962 18.5592 75.4705 18.5592L71.0116 18.4759C68.7821 18.3927 66.9656 18.143 65.6444 17.7269C64.2407 17.3108 63.1673 16.8114 62.3416 16.2289C61.5158 15.6463 61.0204 14.8973 60.6901 14.1482C60.4424 13.1495 60.2773 12.4005 60.2773 11.6515V11.4018C60.2773 10.5696 60.4424 9.73731 60.7727 8.90506C61.103 8.15604 61.7636 7.40702 62.7544 6.82444C63.7453 6.24187 65.149 5.74252 66.9656 5.32639C68.7821 4.99349 71.0942 4.82704 73.9842 4.82704H76.0485C78.8559 4.82704 81.1679 4.99349 82.9019 5.40962C84.7185 5.74252 86.1222 6.24187 87.1131 6.90767C88.1039 7.49024 88.8471 8.23926 89.1773 8.98829C89.5902 9.73731 89.7553 10.5696 89.7553 11.4018V11.6515H79.1862C79.1862 11.485 79.1036 11.2354 79.021 11.0689C78.9385 10.9025 78.7733 10.6528 78.443 10.4031C78.1953 10.2367 77.6999 10.0702 77.2045 9.90376C76.6265 9.73731 75.8833 9.65409 74.975 9.65409C74.1493 9.65409 73.4062 9.65409 72.9107 9.73731C72.4153 9.82054 72.0024 9.90376 71.6722 9.98699C71.3419 10.0702 71.1767 10.2367 71.0942 10.4031C71.0116 10.5696 70.929 10.8192 70.929 11.0689C70.929 11.3186 71.0116 11.485 71.0942 11.6515C71.1767 11.8179 71.4244 11.9844 71.6722 12.1508C71.9199 12.3173 72.3327 12.4005 72.8282 12.4837C73.3236 12.567 73.9842 12.6502 74.8099 12.6502L79.1862 12.7334C81.5808 12.8166 83.4799 12.9831 84.9662 13.316C86.4525 13.6489 87.6085 14.065 88.4342 14.6476C89.2599 15.2302 89.8379 15.896 90.1682 16.645C90.4985 17.4772 90.5811 18.3927 90.5811 19.3914V19.6411C90.5811 20.6398 90.4159 21.5553 90.0856 22.3875C89.7553 23.303 89.0122 24.052 88.0213 24.7178C86.9479 25.3836 85.5442 25.883 83.645 26.2991C81.7459 26.7152 79.2688 26.8817 76.2136 26.8817H74.0667C71.9199 27.0481 70.1033 26.9649 68.617 26.7152Z" fill="white"/>
<path d="M143.127 27C140.897 27 138.924 26.8314 137.208 26.4943C135.493 26.1571 134.12 25.7356 132.919 25.1456C131.718 24.5556 130.775 23.9655 130.002 23.2069C129.23 22.4483 128.63 21.6897 128.201 20.931C127.772 20.1724 127.429 19.3295 127.257 18.4866C127.086 17.6437 127 16.8851 127 16.1264V15.5364C127 14.7778 127.086 14.0192 127.257 13.2605C127.429 12.4176 127.686 11.659 128.115 10.9004C128.544 10.1418 129.145 9.38314 129.917 8.62452C130.689 7.95019 131.632 7.27586 132.833 6.77012C134.034 6.26437 135.407 5.84291 137.123 5.50575C138.838 5.16858 140.811 5 143.042 5H146.044C148.36 5 150.419 5.16858 152.135 5.50575C153.85 5.84291 155.309 6.26437 156.424 6.77012C157.625 7.27586 158.569 7.95019 159.341 8.62452C160.113 9.29885 160.627 10.0575 161.056 10.8161C161.485 11.5747 161.743 12.4176 161.828 13.1762C162 13.9349 162 14.7778 162 15.4521V16.1264C162 16.8851 161.914 17.6437 161.828 18.4866C161.657 19.3295 161.4 20.0881 161.056 20.931C160.627 21.6897 160.113 22.5326 159.341 23.2069C158.654 23.9655 157.625 24.5556 156.424 25.1456C155.223 25.7356 153.765 26.1571 152.049 26.4943C150.333 26.8314 148.275 27 145.958 27H143.127ZM144.586 10.8161C143.299 10.8161 142.184 10.9847 141.326 11.2375C140.468 11.5747 139.782 11.9119 139.267 12.4176C138.752 12.9234 138.409 13.4291 138.238 14.0192C138.066 14.6092 137.98 15.1992 137.98 15.7893V15.9579C137.98 16.5479 138.066 17.1379 138.238 17.728C138.409 18.318 138.752 18.908 139.267 19.4138C139.782 19.9195 140.468 20.341 141.326 20.6782C142.184 21.0153 143.299 21.1839 144.586 21.1839C145.873 21.1839 146.988 21.0153 147.846 20.6782C148.703 20.341 149.39 19.9195 149.904 19.4138C150.419 18.908 150.762 18.318 150.934 17.728C151.105 17.1379 151.191 16.5479 151.191 15.9579V15.7893C151.191 15.1992 151.105 14.6092 150.934 14.0192C150.762 13.4291 150.419 12.9234 149.904 12.4176C149.39 11.9119 148.703 11.5747 147.846 11.2375C146.988 10.9847 145.958 10.8161 144.586 10.8161Z" fill="white"/>
<path d="M109.127 59C106.897 59 104.924 58.8314 103.208 58.4943C101.493 58.1571 100.12 57.7356 98.9191 57.1456C97.7181 56.5556 96.7745 55.9655 96.0025 55.2069C95.2304 54.4483 94.6299 53.6897 94.201 52.931C93.7721 52.1724 93.4289 51.3295 93.2574 50.4866C93.0858 49.6437 93 48.8851 93 48.1264V47.5364C93 46.7778 93.0858 46.0192 93.2574 45.2605C93.4289 44.4176 93.6863 43.659 94.1152 42.9004C94.5441 42.1418 95.1446 41.3831 95.9167 40.6245C96.6887 39.9502 97.6324 39.2759 98.8333 38.7701C100.034 38.2644 101.407 37.8429 103.123 37.5057C104.838 37.1686 106.811 37 109.042 37H112.044C114.36 37 116.419 37.1686 118.135 37.5057C119.85 37.8429 121.309 38.2644 122.424 38.7701C123.625 39.2759 124.569 39.9502 125.341 40.6245C126.113 41.2989 126.627 42.0575 127.056 42.8161C127.485 43.5747 127.743 44.4176 127.828 45.1762C128 45.9349 128 46.7778 128 47.4521V48.1264C128 48.8851 127.914 49.6437 127.828 50.4866C127.657 51.3295 127.4 52.0881 127.056 52.931C126.627 53.6897 126.113 54.5326 125.341 55.2069C124.654 55.9655 123.625 56.5556 122.424 57.1456C121.223 57.7356 119.765 58.1571 118.049 58.4943C116.333 58.8314 114.275 59 111.958 59H109.127ZM110.586 42.8161C109.299 42.8161 108.184 42.9847 107.326 43.2375C106.468 43.5747 105.782 43.9119 105.267 44.4176C104.752 44.9234 104.409 45.4291 104.238 46.0192C104.066 46.6092 103.98 47.1992 103.98 47.7893V47.9579C103.98 48.5479 104.066 49.1379 104.238 49.728C104.409 50.318 104.752 50.908 105.267 51.4138C105.782 51.9195 106.468 52.341 107.326 52.6782C108.184 53.0153 109.299 53.1839 110.586 53.1839C111.873 53.1839 112.988 53.0153 113.846 52.6782C114.703 52.341 115.39 51.9195 115.904 51.4138C116.419 50.908 116.762 50.318 116.934 49.728C117.105 49.1379 117.191 48.5479 117.191 47.9579V47.7893C117.191 47.1992 117.105 46.6092 116.934 46.0192C116.762 45.4291 116.419 44.9234 115.904 44.4176C115.39 43.9119 114.703 43.5747 113.846 43.2375C112.988 42.9847 111.958 42.8161 110.586 42.8161Z" fill="white"/>
<path d="M125.261 11.485C124.848 10.2367 124.188 9.15475 123.279 8.15605C122.289 7.15735 121.05 6.40832 119.481 5.82575C117.912 5.24317 115.931 4.9935 113.453 4.9935H112.628C111.059 4.9935 109.738 5.15995 108.582 5.40962C107.426 5.6593 106.435 5.9922 105.527 6.40832C104.701 6.82445 104.04 7.15735 103.545 7.49025C103.049 7.82315 102.637 8.15605 102.471 8.3225V5.40962H91.9023V40.6138C92.0674 40.1977 92.2325 39.8648 92.3977 39.4486C92.8105 38.6164 93.3885 37.8674 94.1317 37.2016C94.8748 36.4525 95.8657 35.87 97.0217 35.2874C98.1777 34.788 99.5814 34.2887 101.233 33.9558C101.646 33.8726 101.976 33.7893 102.389 33.7893V23.8856C102.554 24.052 102.884 24.3017 103.38 24.6346C103.875 24.9675 104.536 25.3004 105.361 25.6333C106.187 25.9662 107.178 26.2159 108.334 26.4655C109.49 26.7152 110.811 26.7984 112.297 26.7984H113.041C115.518 26.7984 117.499 26.4655 119.151 25.883C120.802 25.2172 122.041 24.4681 123.032 23.3862C124.023 22.3875 124.683 21.2224 125.096 19.974C125.509 18.7256 125.757 17.394 125.757 16.0624V15.2302C125.839 13.9818 125.674 12.7334 125.261 11.485ZM115.105 15.9792C115.105 16.5618 115.022 17.1443 114.857 17.7269C114.692 18.3095 114.362 18.8088 113.866 19.3082C113.453 19.8075 112.793 20.2237 112.05 20.4733C111.307 20.8062 110.316 20.9727 109.16 20.9727H108.995C107.839 20.9727 106.848 20.8062 106.022 20.5566C105.196 20.2237 104.536 19.8908 104.04 19.3914C103.545 18.8921 103.132 18.3927 102.884 17.8101C102.637 17.2276 102.554 16.645 102.554 16.0624V15.8127C102.554 15.1469 102.637 14.5644 102.884 13.9818C103.132 13.3992 103.545 12.8999 104.04 12.4005C104.536 11.9012 105.196 11.5683 106.022 11.2354C106.848 10.9857 107.839 10.8192 108.995 10.8192H109.16C110.316 10.8192 111.307 10.9857 112.05 11.2354C112.793 11.485 113.453 11.9012 113.866 12.4005C114.279 12.8999 114.609 13.3992 114.857 13.9818C115.022 14.5644 115.105 15.1469 115.105 15.8127V15.9792Z" fill="white"/>
<path d="M161.097 58.6736H150.611V54.9285C150.363 55.1782 149.95 55.5943 149.455 56.0104C148.959 56.5098 148.216 56.9259 147.39 57.4252C146.482 57.9246 145.491 58.3407 144.253 58.6736C143.014 59.0065 141.61 59.1729 140.042 59.1729H139.794C137.812 59.1729 136.243 58.9233 134.922 58.3407C133.601 57.8413 132.61 57.0923 131.867 56.3433C131.124 55.5943 130.546 54.5956 130.216 53.6801C129.885 52.7646 129.72 51.8492 129.72 50.9337V37.6177H140.372V47.6879C140.372 48.3537 140.454 49.0195 140.62 49.6021C140.785 50.1846 141.032 50.684 141.445 51.1834C141.858 51.5995 142.354 52.0156 142.932 52.1821C143.51 52.4317 144.253 52.5149 145.161 52.5149C146.895 52.5149 148.299 52.0156 149.207 51.0169C150.115 50.0182 150.611 48.7698 150.611 47.355V37.5345H161.18V58.6736H161.097Z" fill="white"/>
<path d="M172.575 27.0481C170.758 27.0481 169.355 26.5488 168.446 25.5501C167.538 24.5514 167.043 23.0533 167.043 21.0559V12.4837H162.997V5.40962H167.043V0H177.529V5.40962H181.575V12.4837H177.529V18.6424C177.529 19.3082 177.612 19.7243 177.859 20.0572C178.107 20.3069 178.52 20.4733 179.263 20.4733H181.493V27.1313H172.575V27.0481Z" fill="white"/>
<path d="M172.575 59.2562C170.758 59.2562 169.355 58.7568 168.446 57.7581C167.538 56.7594 167.043 55.2614 167.043 53.264V44.6086H162.997V37.5345H167.043V32.1248H177.529V37.5345H181.575V44.6086H177.529V50.7672C177.529 51.433 177.612 51.8491 177.859 52.1821C178.107 52.4317 178.52 52.5982 179.263 52.5982H181.493V59.2562H172.575Z" fill="white"/>
<path d="M44.341 12.3173L63.4977 64L12.2206 44.6918L44.341 12.3173Z" fill="url(#paint0_linear)"/>
<path d="M23.6155 47.6047C36.658 47.6047 47.231 36.948 47.231 23.8023C47.231 10.6567 36.658 0 23.6155 0C10.573 0 0 10.6567 0 23.8023C0 36.948 10.573 47.6047 23.6155 47.6047Z" fill="#FF005C"/>
<defs>
<linearGradient id="paint0_linear" x1="28.7963" y1="29.0242" x2="64.3884" y2="64.3369" gradientUnits="userSpaceOnUse">
<stop offset="0.2238" stop-color="#EA3970" stop-opacity="0.64"/>
<stop offset="1" stop-color="#EA3970" stop-opacity="0.32"/>
</linearGradient>
</defs>
</svg>
