<svg width="40" height="40" viewBox="0 0 40 40" fill="none" xmlns="http://www.w3.org/2000/svg">
<path d="M10 24L9 24L9 25H10V24ZM10 17.5L11 17.5V17.5L10 17.5ZM16.5 11L16.5 12H16.5V11ZM23 17.5H24H23ZM16.5 23H10V25H16.5V23ZM11 24L11 17.5L9.00001 17.5L9 24L11 24ZM11 17.5C11 16.0413 11.5795 14.6424 12.6109 13.6109L11.1967 12.1967C9.79018 13.6032 9.00001 15.5109 9.00001 17.5L11 17.5ZM12.6109 13.6109C13.6424 12.5795 15.0413 12 16.5 12L16.5 10C14.5109 10 12.6032 10.7902 11.1967 12.1967L12.6109 13.6109ZM16.5 12C17.9587 12 19.3576 12.5795 20.3891 13.6109L21.8033 12.1967C20.3968 10.7902 18.4891 10 16.5 10V12ZM20.3891 13.6109C21.4205 14.6424 22 16.0413 22 17.5H24C24 15.5109 23.2098 13.6032 21.8033 12.1967L20.3891 13.6109ZM22 17.5C22 18.9587 21.4205 20.3576 20.3891 21.3891L21.8033 22.8033C23.2098 21.3968 24 19.4891 24 17.5H22ZM20.3891 21.3891C19.3576 22.4205 17.9587 23 16.5 23V25C18.4891 25 20.3968 24.2098 21.8033 22.8033L20.3891 21.3891Z" fill="#C3C8CF"/>
<path d="M17.9397 24.3217C17.7508 23.8027 17.1769 23.5352 16.6579 23.7241C16.139 23.913 15.8714 24.4869 16.0603 25.0058L17.9397 24.3217ZM23.3096 29L23.3096 30H23.3096V29ZM30 29V30H31L31 29L30 29ZM30 22.4952L31 22.4952V22.4952L30 22.4952ZM23.7283 15.0014C23.1768 14.9721 22.7059 15.3953 22.6766 15.9468C22.6472 16.4983 23.0705 16.9692 23.622 16.9986L23.7283 15.0014ZM16.0603 25.0058C16.5944 26.473 17.5812 27.7382 18.8798 28.6306L20.0126 26.9823C19.0513 26.3217 18.3289 25.391 17.9397 24.3217L16.0603 25.0058ZM18.8798 28.6306C20.1781 29.5228 21.7256 30 23.3096 30L23.3096 28C22.1261 28 20.9742 27.6432 20.0126 26.9823L18.8798 28.6306ZM23.3096 30H30V28H23.3096V30ZM31 29L31 22.4952L29 22.4952L29 29L31 29ZM31 22.4952C30.9999 20.567 30.2398 18.7174 28.8844 17.3254L27.4515 18.7207C28.4488 19.7449 28.9999 21.0961 29 22.4952L31 22.4952ZM28.8844 17.3254C27.5297 15.9343 25.6839 15.1055 23.7283 15.0014L23.622 16.9986C25.0836 17.0764 26.4533 17.6956 27.4515 18.7207L28.8844 17.3254Z" fill="#C3C8CF"/>
</svg>
